<svg width="100" height="70" viewBox="0 0 100 70" fill="none" xmlns="http://www.w3.org/2000/svg">
<path d="M82.1487 44.2998C82.1487 44.2998 78.9433 48.8437 81.4884 55.7129L55.8965 68.6041L53.4406 69.2018L52.3094 63.4542L53.0659 56.2007V52.2364L82.1487 44.2998Z" fill="#D5D6DB"/>
<path d="M1.3335 41.3637L36.7549 33.8638L83.6898 42.5477L54.5377 54.7377L1.3335 41.3637Z" fill="#FB4789"/>
<path d="M1.3335 41.3637L36.7549 33.8638L83.6898 42.5477L54.5377 54.7377L1.3335 41.3637Z" fill="#FB4789"/>
<path d="M1.33347 41.3619C1.33347 41.3619 -1.97934 48.6515 1.83823 55.3845L54.3652 68.604C54.3652 68.604 51.1047 62.7973 54.5334 54.7374L1.33347 41.3619Z" fill="#FB4789"/>
<path opacity="0.1" d="M1.33347 41.3619C1.33347 41.3619 -1.97934 48.6515 1.83823 55.3845L54.3652 68.604C54.3652 68.604 51.1047 62.7973 54.5334 54.7374L1.33347 41.3619Z" fill="black"/>
<path opacity="0.1" d="M2.89868 43.8894C2.89868 43.8894 1.00547 49.2232 2.89868 52.6751Z" fill="black"/>
<path d="M54.3653 68.6042L83.6899 54.0711C83.6899 54.0711 85.33 54.4816 84.2696 55.8774C83.2091 57.2733 54.9309 70 54.9309 70L1.83838 55.3848L54.3653 68.6042Z" fill="#FB4789"/>
<path opacity="0.1" d="M54.3653 68.6042L83.6899 54.0711C83.6899 54.0711 85.33 54.4816 84.2696 55.8774C83.2091 57.2733 54.9309 70 54.9309 70L1.83838 55.3848L54.3653 68.6042Z" fill="black"/>
<path opacity="0.1" d="M51.9615 56.2057C51.9615 56.2057 49.1337 60.1469 51.9615 66.0587Z" fill="black"/>
<path opacity="0.1" d="M65.6521 56.1391L52.968 61.054L53.0128 61.2098L65.6968 56.2949L65.6521 56.1391Z" fill="black"/>
<path opacity="0.1" d="M68.1927 55.6499L52.964 62.3757L53.0142 62.5292L68.2429 55.8034L68.1927 55.6499Z" fill="black"/>
<path opacity="0.1" d="M70.5258 55.6263L53.049 63.9348L53.1025 64.0868L70.5794 55.7783L70.5258 55.6263Z" fill="black"/>
<path opacity="0.1" d="M73.063 54.915L53.2529 65.3083L53.3111 65.458L73.1212 55.0647L73.063 54.915Z" fill="black"/>
<path opacity="0.1" d="M75.1948 54.9182L53.4099 65.978L53.4665 66.1285L75.2514 55.0687L75.1948 54.9182Z" fill="black"/>
<path opacity="0.1" d="M79.8571 53.9986L53.7383 67.1008L53.7943 67.2516L79.9131 54.1493L79.8571 53.9986Z" fill="black"/>
<path opacity="0.3" d="M14.4928 42.1648L39.3777 36.0888L54.5377 39.4553L34.1462 47.0914L14.4928 42.1648Z" fill="white"/>
<path d="M83.6896 42.5475C83.6896 42.5475 84.9763 43.1501 84.2213 44.0813C83.4662 45.0124 54.5333 54.7374 54.5333 54.7374L83.6896 42.5475Z" fill="#FB4789"/>
<path d="M96.1875 28.5052C96.1875 28.5052 92.9835 33.0475 95.5286 39.9184L69.9367 52.8097L67.4807 53.4108L66.3496 47.6631L67.1174 40.4111V36.4419L96.1875 28.5052Z" fill="#D5D6DB"/>
<path d="M15.3738 25.5672L50.7938 18.069L97.7301 26.7529L68.578 38.9428L15.3738 25.5672Z" fill="#3A3768"/>
<path d="M15.3681 25.5675C15.3681 25.5675 12.0539 32.8571 15.8715 39.5901L68.3984 52.8096C68.3984 52.8096 65.1393 46.998 68.5723 38.9414L15.3681 25.5675Z" fill="#3A3768"/>
<path opacity="0.1" d="M15.3681 25.5675C15.3681 25.5675 12.0539 32.8571 15.8715 39.5901L68.3984 52.8096C68.3984 52.8096 65.1393 46.998 68.5723 38.9414L51.9617 34.7654L15.3681 25.5675Z" fill="black"/>
<path opacity="0.1" d="M16.9374 28.0945C16.9374 28.0945 15.0457 33.4267 16.9374 36.8803Z" fill="black"/>
<path d="M68.4038 52.8098L97.7298 38.2764C97.7298 38.2764 99.3685 38.687 98.308 40.0828C97.2476 41.4787 68.9693 54.2056 68.9693 54.2056L15.8768 39.5902L68.4038 52.8098Z" fill="#3A3768"/>
<path opacity="0.1" d="M68.4038 52.8098L97.7298 38.2764C97.7298 38.2764 99.3685 38.687 98.308 40.0828C97.2476 41.4787 68.9693 54.2056 68.9693 54.2056L15.8768 39.5902L68.4038 52.8098Z" fill="black"/>
<path opacity="0.1" d="M66.0002 40.411C66.0002 40.411 63.1724 44.3523 66.0002 50.2642Z" fill="black"/>
<path opacity="0.1" d="M79.692 40.3461L67.0079 45.261L67.0527 45.4168L79.7368 40.5019L79.692 40.3461Z" fill="black"/>
<path opacity="0.1" d="M82.2343 39.8562L67.0056 46.582L67.0559 46.7355L82.2845 40.0097L82.2343 39.8562Z" fill="black"/>
<path opacity="0.1" d="M84.5655 39.8303L67.0886 48.1388L67.1422 48.2908L84.6191 39.9822L84.5655 39.8303Z" fill="black"/>
<path opacity="0.1" d="M87.1043 39.1189L67.2942 49.5126L67.3524 49.6623L87.1625 39.2686L87.1043 39.1189Z" fill="black"/>
<path opacity="0.1" d="M89.2338 39.1205L67.449 50.1802L67.5056 50.3307L89.2905 39.2709L89.2338 39.1205Z" fill="black"/>
<path opacity="0.1" d="M93.8973 38.201L67.7786 51.3033L67.8346 51.454L93.9534 38.3518L93.8973 38.201Z" fill="black"/>
<path opacity="0.45" d="M28.533 26.3703L53.4179 20.2942L68.5779 23.6607L48.1864 31.2969L28.533 26.3703Z" fill="white"/>
<path d="M97.7298 26.7529C97.7298 26.7529 99.0151 27.3556 98.2614 28.2851C97.5078 29.2146 68.5778 38.9414 68.5778 38.9414L97.7298 26.7529Z" fill="#3A3768"/>
<path d="M97.5164 10.4362C97.5164 10.4362 94.311 18.593 96.8561 25.4623L71.2642 34.7406L68.8139 35.3433L67.6827 29.5957L68.4392 22.3421V18.3729L97.5164 10.4362Z" fill="#D5D6DB"/>
<path d="M16.707 7.49988L52.1284 0L99.0647 8.68389L69.9112 20.8739L16.707 7.49988Z" fill="#FB4789"/>
<path d="M16.7068 7.49829C16.7068 7.49829 13.3883 14.788 17.2059 21.521L69.7328 34.7407C69.7328 34.7407 66.4723 28.929 69.9053 20.874L16.7068 7.49829Z" fill="#FB4789"/>
<path opacity="0.1" d="M16.7068 7.49829C16.7068 7.49829 13.3883 14.788 17.2059 21.521L69.7328 34.7407C69.7328 34.7407 66.4723 28.929 69.9053 20.874L16.7068 7.49829Z" fill="black"/>
<path opacity="0.1" d="M18.2722 10.0257C18.2722 10.0257 16.379 15.3595 18.2722 18.8113Z" fill="black"/>
<path d="M69.7388 34.7406L99.0634 23.8201C99.0634 23.8201 100.704 24.2307 99.6431 25.6265C98.5827 27.0224 70.3044 36.1365 70.3044 36.1365L17.2119 21.5211L69.7388 34.7406Z" fill="#FB4789"/>
<path opacity="0.1" d="M69.7388 34.7406L99.0634 23.8201C99.0634 23.8201 100.704 24.2307 99.6431 25.6265C98.5827 27.0224 70.3044 36.1365 70.3044 36.1365L17.2119 21.5211L69.7388 34.7406Z" fill="black"/>
<path opacity="0.1" d="M67.3351 22.3421C67.3351 22.3421 64.5072 26.2834 67.3351 32.1954Z" fill="black"/>
<path opacity="0.1" d="M81.027 22.277L68.3429 27.1918L68.3876 27.3476L81.0718 22.4327L81.027 22.277Z" fill="black"/>
<path opacity="0.1" d="M83.5683 21.7878L68.3396 28.5135L68.3899 28.6669L83.6185 21.9413L83.5683 21.7878Z" fill="black"/>
<path opacity="0.1" d="M85.8982 21.7628L68.4213 30.0711L68.4748 30.2231L85.9517 21.9148L85.8982 21.7628Z" fill="black"/>
<path opacity="0.1" d="M88.439 21.0502L68.6289 31.4438L68.6871 31.5935L88.4973 21.1999L88.439 21.0502Z" fill="black"/>
<path opacity="0.1" d="M90.5692 21.053L68.7844 32.1123L68.8411 32.2628L90.6259 21.2035L90.5692 21.053Z" fill="black"/>
<path opacity="0.1" d="M95.2325 20.1343L69.1138 33.2367L69.1698 33.3875L95.2885 20.2851L95.2325 20.1343Z" fill="black"/>
<path opacity="0.3" d="M29.8665 8.3014L54.7513 2.22525L69.9113 5.59177L49.5198 13.228L29.8665 8.3014Z" fill="white"/>
<path d="M99.0631 8.68402C99.0631 8.68402 100.35 9.2867 99.5947 10.2178C98.8397 11.1489 69.911 20.874 69.911 20.874L99.0631 8.68402Z" fill="#FB4789"/>
</svg>
